<svg version="1.2" xmlns="http://www.w3.org/2000/svg" viewBox="0 0 16 16" width="16" height="16">
	<defs>
		<linearGradient id="g1" x2="1" gradientUnits="userSpaceOnUse" gradientTransform="matrix(0,-2.495,4.584,0,8.024,15.513)">
			<stop offset="0" stop-color="#bf00c1"/>
			<stop offset="1" stop-color="#ff21e7"/>
		</linearGradient>
		<linearGradient id="g2" x2="1" gradientUnits="userSpaceOnUse" gradientTransform="matrix(0,4.476,-17.561,0,7.671,10.243)">
			<stop offset="0" stop-color="#e1eeff"/>
			<stop offset="1" stop-color="#f600ff" stop-opacity=".576"/>
		</linearGradient>
		<linearGradient id="g3" x2="1" gradientUnits="userSpaceOnUse" gradientTransform="matrix(-0.063,-5.992,4.856,-0.046,8,9)">
			<stop offset="0" stop-color="#b600c1"/>
			<stop offset="1" stop-color="#e221ff"/>
		</linearGradient>
		<linearGradient id="g4" x2="1" gradientUnits="userSpaceOnUse" gradientTransform="matrix(0,3.439,-5.619,0,7.89,1.607)">
			<stop offset="0" stop-color="#e1eeff"/>
			<stop offset="1" stop-color="#ff00f6" stop-opacity=".576"/>
		</linearGradient>
		<linearGradient id="g5" x2="1" gradientUnits="userSpaceOnUse" gradientTransform="matrix(0,7,-8,0,6,9)">
			<stop offset="0" stop-color="#0033a7"/>
			<stop offset=".3" stop-color="#030080"/>
			<stop offset=".4" stop-color="#16005e"/>
			<stop offset=".6" stop-color="#00075e"/>
			<stop offset=".7" stop-color="#0f0080"/>
			<stop offset="1" stop-color="#1f00a7"/>
		</linearGradient>
		<linearGradient id="g6" x2="1" gradientUnits="userSpaceOnUse" gradientTransform="matrix(7,0,0,1,7,10)">
			<stop offset="0" stop-color="#deddda"/>
			<stop offset=".4" stop-color="#ffffff"/>
			<stop offset=".6" stop-color="#ffffff"/>
			<stop offset="1" stop-color="#deddda"/>
		</linearGradient>
		<linearGradient id="g7" x2="1" gradientUnits="userSpaceOnUse" gradientTransform="matrix(7,0,0,1,7,11)">
			<stop offset="0" stop-color="#c0c0c0"/>
			<stop offset=".4" stop-color="#deddda"/>
			<stop offset=".6" stop-color="#deddda"/>
			<stop offset="1" stop-color="#c0c0c0"/>
		</linearGradient>
		<linearGradient id="g8" x2="1" gradientUnits="userSpaceOnUse" gradientTransform="matrix(7,0,0,1,7,12)">
			<stop offset="0" stop-color="#deddda"/>
			<stop offset=".4" stop-color="#ffffff"/>
			<stop offset=".6" stop-color="#ffffff"/>
			<stop offset="1" stop-color="#deddda"/>
		</linearGradient>
		<linearGradient id="g9" x2="1" gradientUnits="userSpaceOnUse" gradientTransform="matrix(7,0,0,1,7,13)">
			<stop offset="0" stop-color="#c0c0c0"/>
			<stop offset=".4" stop-color="#deddda"/>
			<stop offset=".6" stop-color="#deddda"/>
			<stop offset="1" stop-color="#c0c0c0"/>
		</linearGradient>
		<linearGradient id="g10" x2="1" gradientUnits="userSpaceOnUse" gradientTransform="matrix(7,0,0,1,7,14)">
			<stop offset="0" stop-color="#deddda"/>
			<stop offset=".4" stop-color="#ffffff"/>
			<stop offset=".6" stop-color="#ffffff"/>
			<stop offset="1" stop-color="#deddda"/>
		</linearGradient>
	</defs>
	<style>
		.s0 { fill: url(#g1);stroke: #780f8f;stroke-width: .9 } 
		.s1 { fill: url(#g2) } 
		.s2 { fill: #ff0000 } 
		.s3 { fill: url(#g3);stroke: #8d0f8f;stroke-linecap: square;stroke-width: 1 } 
		.s4 { fill: url(#g4) } 
		.s5 { fill: url(#g5) } 
		.s6 { fill: url(#g6) } 
		.s7 { fill: url(#g7) } 
		.s8 { fill: url(#g8) } 
		.s9 { fill: url(#g9) } 
		.s10 { fill: url(#g10) } 
		.s11 { fill: #07005e } 
		.s12 { fill: #c0c0c0 } 
		.s13 { fill: #acacac } 
	</style>
	<g id="layer1">
		<path id="path90" class="s0" d="m0.47 14.02c-0.47-5.02 6.29-4.74 6.29-4.74h2.52c0 0 4.72-0.28 1.72 4.72l-0.01 1.54-10.52 0.02z"/>
		<path id="path4561" class="s1" d="m13.33 11.92c0 1.06-2.54 1.14-5.68 1.14-3.13 0-5.98 0.25-5.98-0.8 0-1.06 2.83-2.15 5.97-2.15 3.13 0 5.69 0.76 5.69 1.81z"/>
		<path id="path7693" class="s2" d="m11.91 4.63q0 0.07-0.01 0.14 0 0.07 0 0.14 0 0.07-0.01 0.14 0 0.06-0.01 0.13"/>
		<path id="path5606" class="s3" d="m11.5 3.99c0 2.08-1.38 5.2-3.57 5.2-2.19 0-3.47-3.08-3.47-5.16 0-2.08 1.29-3.53 3.48-3.53 2.19 0 3.56 1.41 3.56 3.49z"/>
		<path id="path6649" class="s4" d="m10.64 3.31c0 0.78-1.15 1.28-2.74 1.28-1.6 0-2.57-0.52-2.57-1.3 0-0.77 0.96-1.95 2.55-1.95 1.6 0 2.76 1.19 2.76 1.97z"/>
		<path id="rect68" class="s5" d="m6 9h8v7h-8z"/>
		<path id="rect70" class="s6" d="m7 10h7v1h-7z"/>
		<path id="rect72" class="s7" d="m7 11h7v1h-7z"/>
		<path id="rect74" class="s8" d="m7 12h7v1h-7z"/>
		<path id="rect76" class="s9" d="m7 13h7v1h-7z"/>
		<path id="rect78" class="s10" d="m7 14h7v1h-7z"/>
		<path id="rect80" class="s11" d="m14 9h2v7h-2z"/>
		<path id="rect82" class="s12" d="m14 10h2v1h-2z"/>
		<path id="rect84" class="s13" d="m14 11h2v1h-2z"/>
		<path id="rect86" class="s12" d="m14 12h2v1h-2z"/>
		<path id="rect88" class="s13" d="m14 13h2v1h-2z"/>
		<path id="rect90" class="s12" d="m14 14h2v1h-2z"/>
	</g>
</svg>